<svg width="80" height="80" viewBox="0 0 80 80" fill="none" xmlns="http://www.w3.org/2000/svg">
<path d="M60 28.2066L56.5666 31.3066C56.0422 31.8177 55.4133 32.0733 54.68 32.0733C53.9466 32.0733 53.2544 31.8733 52.6033 31.4733C52.0811 31.1177 51.7233 30.6066 51.53 29.94C51.3389 29.2733 51.3667 28.52 51.6133 27.68L53.2033 22.4866L49.6033 20.3066C48.97 19.9355 48.5255 19.4166 48.27 18.75C48.0144 18.0833 47.9633 17.4055 48.1167 16.7166C48.2655 16.0722 48.6389 15.5611 49.2367 15.1833C49.8344 14.8055 50.5333 14.6166 51.3333 14.6166H55.6933L56.95 10.4233C57.1544 9.70995 57.5422 9.11884 58.1133 8.64995C58.6844 8.18328 59.3133 7.94995 60 7.94995C60.6866 7.94995 61.3155 8.18328 61.8866 8.64995C62.4578 9.11662 62.8466 9.70773 63.0533 10.4233L64.3066 14.6166H68.6666C69.4222 14.6166 70.0966 14.8055 70.69 15.1833C71.2833 15.5611 71.6822 16.0722 71.8866 16.7166C72.1466 17.4188 72.1566 18.1144 71.9166 18.8033C71.6766 19.49 71.2689 19.9911 70.6933 20.3066L66.7933 22.4866L68.3866 27.5533C68.6333 28.3511 68.6711 29.1077 68.5 29.8233C68.3289 30.5388 67.9622 31.0888 67.4 31.4733C66.7778 31.9133 66.0922 32.1233 65.3433 32.1033C64.5944 32.0833 63.9589 31.8177 63.4366 31.3066L60 28.2066ZM60 23.46C60.86 23.46 61.5878 23.1622 62.1833 22.5666C62.7789 21.9711 63.0766 21.2433 63.0766 20.3833C63.0766 19.5233 62.7789 18.7955 62.1833 18.2C61.5878 17.6044 60.86 17.3066 60 17.3066C59.14 17.3066 58.4122 17.6055 57.8166 18.2033C57.2211 18.8011 56.9233 19.5288 56.9233 20.3866C56.9233 21.2444 57.2211 21.9711 57.8166 22.5666C58.4122 23.1622 59.14 23.4622 60 23.4666M42.7967 59.1566C43.8167 61.8077 43.4522 64.2777 41.7033 66.5666C39.9544 68.8555 37.5489 70 34.4867 70C32.9955 70 31.6011 69.57 30.3033 68.71C29.0078 67.8522 27.9922 66.6877 27.2567 65.2166C23.7144 65.3722 20.7178 64.2344 18.2667 61.8033C15.8156 59.3744 14.6533 56.3966 14.78 52.87C13.2844 52.1833 12.1144 51.1166 11.27 49.67C10.4256 48.2233 10.0022 46.5944 10 44.7833C10 41.9055 11.2856 39.6822 13.8567 38.1133C16.4278 36.5444 19.1 36.3277 21.8733 37.4633L26.27 39.2433C26.9967 37.2211 28.2022 35.5722 29.8867 34.2966C31.5689 33.0233 33.4655 32.3311 35.5767 32.22V25.51H38.5267V32.3666C40.9244 32.6377 42.9711 33.6177 44.6667 35.3066C46.3622 36.9955 47.4055 39.1355 47.7967 41.7266H54.6133V44.6766H47.91C47.7989 46.7433 47.09 48.6188 45.7833 50.3033C44.4767 51.9877 42.8144 53.2144 40.7967 53.9833L42.7967 59.1566ZM20.45 50.5666C22.4833 50.5666 24.5011 50.1944 26.5033 49.45C28.5055 48.7077 30.7178 47.4988 33.14 45.8233L20.9667 40.6266C19.0978 39.8333 17.3589 39.88 15.75 40.7666C14.1411 41.6533 13.3356 43.0177 13.3333 44.86C13.3333 46.5177 13.9978 47.8822 15.3267 48.9533C16.6556 50.0266 18.3633 50.5633 20.45 50.5633M34.4867 66.6666C36.3467 66.6666 37.8355 65.9989 38.9533 64.6633C40.0711 63.3277 40.3222 61.8977 39.7067 60.3733L34.5633 47.2433C32.8255 49.5322 31.5367 51.7055 30.6967 53.7633C29.8567 55.8211 29.4367 57.8055 29.4367 59.7166C29.4367 61.7655 29.9055 63.4355 30.8433 64.7266C31.7811 66.02 32.9955 66.6666 34.4867 66.6666ZM39.54 50.86C41.0355 50.2177 42.2489 49.2355 43.18 47.9133C44.1111 46.5911 44.5767 45.13 44.5767 43.53C44.5767 41.3255 43.8222 39.4411 42.3133 37.8766C40.8044 36.3122 38.9544 35.53 36.7633 35.53C35.0367 35.53 33.5044 35.9966 32.1667 36.93C30.8289 37.8633 29.9178 39.0833 29.4333 40.59L36.7067 43.7166L39.54 50.86Z" fill="#CC9850"/>
</svg>
