<svg xmlns="http://www.w3.org/2000/svg" viewBox="0 0 1595.67 55.56"><defs><style>.cls-1,.cls-2{fill:none;stroke:#1e9b50;stroke-linejoin:round;}.cls-1{stroke-linecap:square;}</style></defs><g id="Layer_2" data-name="Layer 2"><g id="Layer_1-2" data-name="Layer 1"><path class="cls-1" d="M770.9,43.48H30.22A28.93,28.93,0,0,1,3,29.05,22.2,22.2,0,0,1,2.34,9.93,16.13,16.13,0,0,1,12.23,1,13.65,13.65,0,0,1,24.7,3.65,12.15,12.15,0,0,1,28,17.15a12,12,0,0,1-5.72,5.77,12.14,12.14,0,0,1-8.09.83"/><path class="cls-2" d="M786.36,43.28a11.59,11.59,0,1,0,3.52-8.15A11.6,11.6,0,0,0,786.36,43.28Z"/><path class="cls-1" d="M825,43.79h740.47a29,29,0,0,0,27.21-14.48,22.47,22.47,0,0,0,.67-19.07,16.31,16.31,0,0,0-9.89-8.86A13.74,13.74,0,0,0,1571,4a12.12,12.12,0,0,0-3.25,13.5,12.05,12.05,0,0,0,13.81,6.54"/></g></g></svg>