<svg xmlns="http://www.w3.org/2000/svg" viewBox="0 0 1595.67 55.56"><defs><style>.cls-1,.cls-2{fill:none;stroke:#1e9b50;stroke-linejoin:round;}.cls-1{stroke-linecap:square;}</style></defs><g id="Layer_2" data-name="Layer 2"><g id="Layer_1-2" data-name="Layer 1"><path class="cls-1" d="M770.9,12.07H30.22A29,29,0,0,0,3,26.5a22.21,22.21,0,0,0-.67,19.12,16.18,16.18,0,0,0,9.89,8.92A13.72,13.72,0,0,0,24.7,51.91,12.15,12.15,0,0,0,28,38.41a12.06,12.06,0,0,0-13.81-6.6"/><path class="cls-2" d="M786.36,12.28a11.59,11.59,0,1,1,3.52,8.14A11.57,11.57,0,0,1,786.36,12.28Z"/><path class="cls-1" d="M825,11.76h740.47a29,29,0,0,1,27.21,14.48,22.47,22.47,0,0,1,.67,19.07,16.33,16.33,0,0,1-4,5.49,16.59,16.59,0,0,1-5.89,3.38,13.86,13.86,0,0,1-6.59.23,13.72,13.72,0,0,1-5.93-2.86,12.15,12.15,0,0,1-3.75-6.24,12,12,0,0,1,.5-7.26,12.07,12.07,0,0,1,13.81-6.55"/></g></g></svg>