<svg width="1600" height="60" viewBox="0 0 1600 60" fill="none" xmlns="http://www.w3.org/2000/svg">
<path d="M773.047 14.2242H32.3649C26.9311 13.8267 21.4954 14.9698 16.6821 17.5223C11.8687 20.0749 7.87295 23.9333 5.15364 28.6544C3.62789 31.5912 2.77607 34.8313 2.66017 38.1388C2.54428 41.4463 3.16722 44.738 4.48367 47.7745C5.40594 49.8776 6.76529 51.7603 8.47136 53.2976C10.1774 54.8348 12.1911 55.9913 14.3787 56.6903C16.515 57.2949 18.7661 57.3715 20.9386 56.9137C23.1111 56.4558 25.1399 55.4772 26.8505 54.0619C28.7138 52.4177 30.0288 50.2422 30.6185 47.8282C31.2082 45.4142 31.0443 42.8774 30.1488 40.5593C28.9657 38.0313 26.9423 35.9919 24.4236 34.7889C21.905 33.586 19.047 33.294 16.3371 33.9627" stroke="#CC9850" stroke-linecap="square" stroke-linejoin="round"/>
<path d="M788.507 14.4303C788.459 11.3549 789.635 8.38653 791.776 6.17809C793.916 3.96964 796.847 2.70208 799.922 2.65424C802.997 2.6064 805.966 3.7822 808.174 5.92299C810.383 8.06378 811.65 10.9942 811.698 14.0696C811.746 17.1449 810.57 20.1133 808.429 22.3218C806.289 24.5302 803.358 25.7978 800.283 25.8456C797.208 25.8935 794.239 24.7177 792.031 22.5769C789.822 20.4361 788.555 17.5057 788.507 14.4303Z" stroke="#CC9850" stroke-linejoin="round"/>
<path d="M827.158 13.915H1567.63C1573.07 13.5286 1578.51 14.6822 1583.32 17.2435C1588.13 19.8048 1592.13 23.6702 1594.84 28.3968C1596.35 31.3324 1597.18 34.5617 1597.3 37.8565C1597.41 41.1514 1596.81 44.4315 1595.51 47.4652C1594.58 49.5534 1593.21 51.4215 1591.51 52.9486C1589.8 54.4756 1587.8 55.6274 1585.62 56.3295C1583.48 56.9385 1581.22 57.0175 1579.03 56.5596C1576.85 56.1018 1574.81 55.1208 1573.1 53.7011C1571.24 52.0552 1569.93 49.8768 1569.35 47.4615C1568.76 45.0461 1568.94 42.5105 1569.85 40.1986C1571.04 37.68 1573.07 35.6518 1575.59 34.4586C1578.1 33.2654 1580.96 32.9809 1583.66 33.6535" stroke="#CC9850" stroke-linecap="square" stroke-linejoin="round"/>
</svg>
