<svg width="1600" height="57" viewBox="0 0 1600 57" fill="none" xmlns="http://www.w3.org/2000/svg">
<path d="M773.047 43.4801H32.3649C26.9163 43.8378 21.4721 42.7267 16.6584 40.2743C11.8447 37.8219 7.85689 34.1279 5.15364 29.6172C3.62522 26.8354 2.77171 23.7635 2.65577 20.6271C2.53984 17.4907 3.16442 14.3695 4.48366 11.4926C5.42363 9.52083 6.79087 7.75988 8.49599 6.32487C10.2011 4.88987 12.2057 3.81311 14.3787 3.16502C16.515 2.59037 18.7661 2.51749 20.9386 2.95267C23.1111 3.38784 25.1399 4.31804 26.8505 5.66328C28.7138 7.22607 30.0288 9.29387 30.6185 11.5884C31.2082 13.883 31.0443 16.2942 30.1488 18.4975C28.9495 20.8853 26.9213 22.8074 24.4058 23.9405C21.8902 25.0736 19.0408 25.3484 16.337 24.7186" stroke="#CC9850" stroke-linecap="square" stroke-linejoin="round"/>
<path d="M788.507 43.2353C788.48 44.6826 788.753 46.1209 789.311 47.468C789.869 48.8151 790.7 50.0445 791.758 51.0862C792.815 52.1278 794.079 52.9613 795.475 53.539C796.872 54.1166 798.374 54.4272 799.897 54.4529C801.42 54.4787 802.933 54.2191 804.35 53.6889C805.767 53.1588 807.061 52.3686 808.157 51.3633C809.253 50.358 810.129 49.1574 810.737 47.8301C811.345 46.5027 811.672 45.0745 811.699 43.6271C811.753 40.704 810.584 37.8799 808.448 35.7762C806.312 33.6725 803.385 32.4614 800.309 32.4095C797.234 32.3575 794.263 33.4689 792.049 35.4991C789.836 37.5293 788.562 40.3121 788.507 43.2353Z" stroke="#CC9850" stroke-linejoin="round"/>
<path d="M827.16 43.7741H1567.64C1573.07 44.1413 1578.51 43.0449 1583.32 40.6103C1588.14 38.1758 1592.13 34.5017 1594.85 30.0092C1596.35 27.2188 1597.18 24.1494 1597.3 21.0176C1597.42 17.8858 1596.81 14.7681 1595.52 11.8845C1594.58 9.89972 1593.22 8.12406 1591.51 6.67261C1589.81 5.22117 1587.8 4.12633 1585.62 3.45902C1583.48 2.88018 1581.22 2.80512 1579.04 3.2403C1576.85 3.67548 1574.82 4.60788 1573.1 5.95728C1571.24 7.51397 1569.93 9.57594 1569.35 11.8632C1568.77 14.1505 1568.95 16.5523 1569.85 18.7425C1571.04 21.1393 1573.07 23.072 1575.58 24.2144C1578.1 25.3567 1580.95 25.6387 1583.66 25.0126" stroke="#CC9850" stroke-linecap="square" stroke-linejoin="round"/>
</svg>
