<svg width="81" height="80" viewBox="0 0 81 80" fill="none" xmlns="http://www.w3.org/2000/svg">
<path d="M53.6782 60C55.4463 60 57.142 60.7024 58.3923 61.9526C59.6425 63.2029 60.3449 64.8986 60.3449 66.6667C60.3449 68.4348 59.6425 70.1305 58.3923 71.3807C57.142 72.631 55.4463 73.3333 53.6782 73.3333C51.9101 73.3333 50.2144 72.631 48.9642 71.3807C47.7139 70.1305 47.0116 68.4348 47.0116 66.6667C47.0116 64.8986 47.7139 63.2029 48.9642 61.9526C50.2144 60.7024 51.9101 60 53.6782 60ZM53.6782 63.3333C52.7942 63.3333 51.9463 63.6845 51.3212 64.3096C50.6961 64.9348 50.3449 65.7826 50.3449 66.6667C50.3449 67.5507 50.6961 68.3986 51.3212 69.0237C51.9463 69.6488 52.7942 70 53.6782 70C54.5623 70 55.4101 69.6488 56.0352 69.0237C56.6604 68.3986 57.0116 67.5507 57.0116 66.6667C57.0116 65.7826 56.6604 64.9348 56.0352 64.3096C55.4101 63.6845 54.5623 63.3333 53.6782 63.3333ZM23.6782 60C25.4463 60 27.142 60.7024 28.3923 61.9526C29.6425 63.2029 30.3449 64.8986 30.3449 66.6667C30.3449 68.4348 29.6425 70.1305 28.3923 71.3807C27.142 72.631 25.4463 73.3333 23.6782 73.3333C21.9101 73.3333 20.2144 72.631 18.9642 71.3807C17.7139 70.1305 17.0116 68.4348 17.0116 66.6667C17.0116 64.8986 17.7139 63.2029 18.9642 61.9526C20.2144 60.7024 21.9101 60 23.6782 60ZM23.6782 63.3333C22.7942 63.3333 21.9463 63.6845 21.3212 64.3096C20.6961 64.9348 20.3449 65.7826 20.3449 66.6667C20.3449 67.5507 20.6961 68.3986 21.3212 69.0237C21.9463 69.6488 22.7942 70 23.6782 70C24.5623 70 25.4101 69.6488 26.0352 69.0237C26.6604 68.3986 27.0116 67.5507 27.0116 66.6667C27.0116 65.7826 26.6604 64.9348 26.0352 64.3096C25.4101 63.6845 24.5623 63.3333 23.6782 63.3333ZM60.3449 20H14.5782L23.0782 40H50.3449C51.4449 40 52.4116 39.4667 53.0116 38.6667L63.0116 25.3333C63.4449 24.7667 63.6782 24.0667 63.6782 23.3333C63.6782 22.4493 63.327 21.6014 62.7019 20.9763C62.0768 20.3512 61.2289 20 60.3449 20ZM50.3449 43.3333H23.2449L20.6782 48.5333L20.3449 50C20.3449 50.8841 20.6961 51.7319 21.3212 52.357C21.9463 52.9821 22.7942 53.3333 23.6782 53.3333H60.3449V56.6667H23.6782C21.9101 56.6667 20.2144 55.9643 18.9642 54.714C17.7139 53.4638 17.0116 51.7681 17.0116 50C17.0106 48.869 17.2973 47.7563 17.8449 46.7667L20.2449 41.8667L8.14489 13.3333H3.67822V10H10.3449L13.1782 16.6667H60.3449C62.113 16.6667 63.8087 17.369 65.0589 18.6193C66.3092 19.8695 67.0116 21.5652 67.0116 23.3333C67.0116 25 66.4449 26.4 65.5116 27.5333L55.8116 40.5C54.6116 42.2 52.6116 43.3333 50.3449 43.3333Z" fill="#CD9951"/>
</svg>
