<svg width="80" height="80" viewBox="0 0 80 80" fill="none" xmlns="http://www.w3.org/2000/svg">
<path d="M10 43.3333C10 51.2897 13.1607 58.9204 18.7868 64.5465C24.4129 70.1725 32.0435 73.3333 40 73.3333C40 56.6666 26.5667 43.3333 10 43.3333ZM40 18.3333C42.2101 18.3333 44.3298 19.2112 45.8926 20.774C47.4554 22.3368 48.3333 24.4564 48.3333 26.6666C48.3333 28.8767 47.4554 30.9963 45.8926 32.5591C44.3298 34.1219 42.2101 34.9999 40 34.9999C37.7899 34.9999 35.6702 34.1219 34.1074 32.5591C32.5446 30.9963 31.6667 28.8767 31.6667 26.6666C31.6667 24.4564 32.5446 22.3368 34.1074 20.774C35.6702 19.2112 37.7899 18.3333 40 18.3333ZM18.6667 34.1666C18.6667 36.3767 19.5446 38.4963 21.1074 40.0591C22.6702 41.6219 24.7899 42.4999 27 42.4999C28.7667 42.4999 30.4 41.9333 31.6667 41.0333V41.6666C31.6667 43.8767 32.5446 45.9963 34.1074 47.5591C35.6702 49.1219 37.7899 49.9999 40 49.9999C42.2101 49.9999 44.3298 49.1219 45.8926 47.5591C47.4554 45.9963 48.3333 43.8767 48.3333 41.6666V41.0333C49.6 41.9333 51.2333 42.4999 53 42.4999C55.2101 42.4999 57.3298 41.6219 58.8926 40.0591C60.4554 38.4963 61.3333 36.3767 61.3333 34.1666C61.3333 30.8333 59.3667 27.9999 56.5667 26.6666C59.3667 25.3333 61.3333 22.4666 61.3333 19.1666C61.3333 16.9564 60.4554 14.8368 58.8926 13.274C57.3298 11.7112 55.2101 10.8333 53 10.8333C51.2333 10.8333 49.6 11.3666 48.3333 12.2999V11.6666C48.3333 9.45645 47.4554 7.33683 45.8926 5.77403C44.3298 4.21123 42.2101 3.33325 40 3.33325C37.7899 3.33325 35.6702 4.21123 34.1074 5.77403C32.5446 7.33683 31.6667 9.45645 31.6667 11.6666V12.2999C30.4 11.3666 28.7667 10.8333 27 10.8333C24.7899 10.8333 22.6702 11.7112 21.1074 13.274C19.5446 14.8368 18.6667 16.9564 18.6667 19.1666C18.6667 22.4666 20.6333 25.3333 23.4333 26.6666C20.6333 27.9999 18.6667 30.8333 18.6667 34.1666ZM40 73.3333C47.9565 73.3333 55.5871 70.1725 61.2132 64.5465C66.8393 58.9204 70 51.2897 70 43.3333C53.3333 43.3333 40 56.6666 40 73.3333Z" fill="#7F5B98"/>
</svg>
