<svg width="107" height="80" viewBox="0 0 107 80" fill="none" xmlns="http://www.w3.org/2000/svg">
<path d="M24.1199 79.6062V38.6072L11.4049 26.9749L0.00305176 20.5198V72.371C0.00305176 76.3743 3.24658 79.6062 7.23828 79.6062H24.1199Z" fill="#4285F4"/>
<path d="M82.0001 79.6063H98.8818C102.886 79.6063 106.117 76.3623 106.117 72.371V20.5203L93.2026 27.9138L82.0001 38.6073V79.6063Z" fill="#34A853"/>
<path d="M24.1199 38.6073L22.3898 22.5878L24.1199 7.25562L53.06 28.9609L82.0001 7.25562L83.9355 21.7601L82.0001 38.6073L53.06 60.3126L24.1199 38.6073Z" fill="#EA4335"/>
<path d="M82.0001 7.25566V38.6074L106.117 20.5199V10.8731C106.117 1.92592 95.9035 -3.1746 88.7533 2.1912L82.0001 7.25566Z" fill="#FBBC04"/>
<path d="M0.00305176 20.5199L11.0949 28.839L24.1199 38.6073V7.25561L17.3668 2.19115C10.2041 -3.17507 0.00305176 1.92586 0.00305176 10.8726V20.5199Z" fill="#C5221F"/>
</svg>
