<svg width="80" height="80" viewBox="0 0 80 80" fill="none" xmlns="http://www.w3.org/2000/svg">
<path fill-rule="evenodd" clip-rule="evenodd" d="M29.8733 61.5634C20.0633 54.0467 6.66663 41.6301 6.66663 29.8901C6.66663 10.2767 25 2.95341 40 18.1001C55 2.95341 73.3333 10.2767 73.3333 29.8901C73.3333 41.6301 59.9333 54.0467 50.1266 61.5634C45.6866 64.9634 43.4666 66.6667 40 66.6667C36.5333 66.6667 34.3133 64.9667 29.8733 61.5634ZM55 20.8334C55.663 20.8334 56.2989 21.0968 56.7677 21.5656C57.2366 22.0345 57.5 22.6704 57.5 23.3334V27.5001H61.6666C62.3297 27.5001 62.9656 27.7635 63.4344 28.2323C63.9032 28.7012 64.1666 29.337 64.1666 30.0001C64.1666 30.6631 63.9032 31.299 63.4344 31.7678C62.9656 32.2367 62.3297 32.5001 61.6666 32.5001H57.5V36.6667C57.5 37.3298 57.2366 37.9657 56.7677 38.4345C56.2989 38.9034 55.663 39.1667 55 39.1667C54.3369 39.1667 53.701 38.9034 53.2322 38.4345C52.7634 37.9657 52.5 37.3298 52.5 36.6667V32.5001H48.3333C47.6702 32.5001 47.0344 32.2367 46.5655 31.7678C46.0967 31.299 45.8333 30.6631 45.8333 30.0001C45.8333 29.337 46.0967 28.7012 46.5655 28.2323C47.0344 27.7635 47.6702 27.5001 48.3333 27.5001H52.5V23.3334C52.5 22.6704 52.7634 22.0345 53.2322 21.5656C53.701 21.0968 54.3369 20.8334 55 20.8334Z" fill="#F24822"/>
</svg>
