<svg width="80" height="80" viewBox="0 0 80 80" fill="none" xmlns="http://www.w3.org/2000/svg">
<path d="M13.3334 63.3334V33.3334C13.3334 32.2779 13.57 31.2779 14.0434 30.3334C14.5167 29.389 15.1689 28.6112 16 28.0001L36 13.0001C37.1667 12.1112 38.5 11.6667 40 11.6667C41.5 11.6667 42.8334 12.1112 44 13.0001L64 28.0001C64.8334 28.6112 65.4867 29.389 65.96 30.3334C66.4334 31.2779 66.6689 32.2779 66.6667 33.3334V63.3334C66.6667 65.1667 66.0134 66.7367 64.7067 68.0434C63.4 69.3501 61.8312 70.0023 60 70.0001H50C49.0556 70.0001 48.2645 69.6801 47.6267 69.0401C46.9889 68.4001 46.6689 67.609 46.6667 66.6667V50.0001C46.6667 49.0556 46.3467 48.2645 45.7067 47.6267C45.0667 46.989 44.2756 46.669 43.3334 46.6667H36.6667C35.7223 46.6667 34.9312 46.9867 34.2934 47.6267C33.6556 48.2667 33.3356 49.0579 33.3334 50.0001V66.6667C33.3334 67.6112 33.0134 68.4034 32.3734 69.0434C31.7334 69.6834 30.9423 70.0023 30 70.0001H20C18.1667 70.0001 16.5978 69.3479 15.2934 68.0434C13.9889 66.739 13.3356 65.169 13.3334 63.3334Z" fill="#7F5B98"/>
</svg>
