<svg xmlns="http://www.w3.org/2000/svg" viewBox="0 0 847.6 36.97"><defs><style>.cls-1,.cls-2{fill:none;stroke:#1e9b50;stroke-linejoin:round;stroke-width:3px;}.cls-1{stroke-linecap:square;}</style></defs><g id="Layer_2" data-name="Layer 2"><g id="Layer_1-2" data-name="Layer 1"><g id="Layer_2-2" data-name="Layer 2"><g id="Layer_1-2-2" data-name="Layer 1-2"><path class="cls-1" d="M401.9,13.13H17a15,15,0,0,0-14.2,7.5,11.59,11.59,0,0,0-.35,9.93,8,8,0,0,0,2.08,2.87A8.43,8.43,0,0,0,7.6,35.2a7.15,7.15,0,0,0,3.41.11,7,7,0,0,0,3.07-1.48,6.32,6.32,0,0,0,1.71-7,6.27,6.27,0,0,0-7.17-3.44"/><path class="cls-2" d="M412.33,13.27a11.59,11.59,0,1,1,3.52,8.14A11.59,11.59,0,0,1,412.33,13.27Z"/><path class="cls-1" d="M446,13.14H830.68a15.09,15.09,0,0,1,14.14,7.53,11.66,11.66,0,0,1,1.28,4.91,11.92,11.92,0,0,1-.93,5,8.53,8.53,0,0,1-5.17,4.6,7.12,7.12,0,0,1-6.51-1.37,6.31,6.31,0,0,1-1.68-7A6.26,6.26,0,0,1,839,23.4"/></g></g></g></g></svg>