<svg xmlns="http://www.w3.org/2000/svg" viewBox="0 0 847.6 36.98"><defs><style>.cls-1,.cls-2{fill:none;stroke:#cc9850;stroke-linejoin:round;stroke-width:3px;}.cls-1{stroke-linecap:square;}</style></defs><g id="Layer_2" data-name="Layer 2"><g id="Layer_1-2" data-name="Layer 1"><path class="cls-1" d="M401.9,13.14H17A15,15,0,0,0,2.8,20.64a11.62,11.62,0,0,0-.35,9.93,8.25,8.25,0,0,0,2.08,2.87A8.43,8.43,0,0,0,7.6,35.21a7.15,7.15,0,0,0,3.41.11,7,7,0,0,0,3.07-1.48,6.31,6.31,0,0,0,1.71-7A6.26,6.26,0,0,0,8.62,23.4"/><path class="cls-2" d="M412.33,13.28a11.59,11.59,0,1,1,3.52,8.14A11.57,11.57,0,0,1,412.33,13.28Z"/><path class="cls-1" d="M446,13.15H830.68a15.08,15.08,0,0,1,14.14,7.53,11.66,11.66,0,0,1,1.28,4.91,11.85,11.85,0,0,1-.93,5A8.5,8.5,0,0,1,840,35.19a7.13,7.13,0,0,1-6.51-1.37,6.26,6.26,0,0,1-1.94-3.24,6.16,6.16,0,0,1,.26-3.77,6.27,6.27,0,0,1,7.17-3.4"/></g></g></svg>