<svg width="81" height="80" viewBox="0 0 81 80" fill="none" xmlns="http://www.w3.org/2000/svg">
<path d="M65.2949 67.1799L44.4215 46.3066C42.7549 47.7266 40.8382 48.8255 38.6715 49.6032C36.5049 50.381 34.3271 50.7699 32.1382 50.7699C26.8004 50.7699 22.2827 48.9221 18.5849 45.2266C14.8871 41.531 13.0382 37.0144 13.0382 31.6766C13.0382 26.3388 14.8849 21.8199 18.5782 18.1199C22.2715 14.4199 26.7871 12.5677 32.1249 12.5632C37.4627 12.5588 41.9827 14.4077 45.6849 18.1099C49.3871 21.8121 51.2382 26.331 51.2382 31.6666C51.2382 33.9821 50.8282 36.2232 50.0082 38.3899C49.1882 40.5566 48.1104 42.4099 46.7749 43.9499L67.6482 64.8199L65.2949 67.1799ZM32.1415 47.4332C36.5638 47.4332 40.2971 45.911 43.3415 42.8666C46.386 39.8221 47.9082 36.0877 47.9082 31.6632C47.9082 27.2388 46.386 23.5055 43.3415 20.4632C40.2971 17.421 36.5638 15.8988 32.1415 15.8966C27.7193 15.8944 23.9849 17.4166 20.9382 20.4632C17.8915 23.5099 16.3693 27.2432 16.3715 31.6632C16.3738 36.0832 17.896 39.8166 20.9382 42.8632C23.9804 45.9099 27.7138 47.4321 32.1382 47.4299" fill="#CD9951"/>
</svg>
