<svg width="80" height="80" viewBox="0 0 80 80" fill="none" xmlns="http://www.w3.org/2000/svg">
<path d="M40.0001 57.5833L26.1668 65.9166C25.5557 66.3055 24.9168 66.4722 24.2501 66.4166C23.5835 66.3611 23.0001 66.1388 22.5001 65.75C22.0001 65.3611 21.6112 64.8755 21.3335 64.2933C21.0557 63.7111 21.0001 63.0577 21.1668 62.3333L24.8335 46.5833L12.5835 36C12.0279 35.5 11.6812 34.93 11.5435 34.29C11.4057 33.65 11.4468 33.0255 11.6668 32.4166C11.8868 31.8077 12.2201 31.3077 12.6668 30.9166C13.1135 30.5255 13.7246 30.2755 14.5001 30.1666L30.6668 28.75L36.9168 13.9166C37.1946 13.25 37.6257 12.75 38.2101 12.4166C38.7946 12.0833 39.3912 11.9166 40.0001 11.9166C40.609 11.9166 41.2057 12.0833 41.7901 12.4166C42.3746 12.75 42.8057 13.25 43.0835 13.9166L49.3335 28.75L65.5001 30.1666C66.2779 30.2777 66.889 30.5277 67.3335 30.9166C67.7779 31.3055 68.1112 31.8055 68.3334 32.4166C68.5557 33.0277 68.5979 33.6533 68.4601 34.2933C68.3223 34.9333 67.9746 35.5022 67.4168 36L55.1668 46.5833L58.8335 62.3333C59.0001 63.0555 58.9446 63.7088 58.6668 64.2933C58.389 64.8777 58.0001 65.3633 57.5001 65.75C57.0001 66.1366 56.4168 66.3588 55.7501 66.4166C55.0835 66.4744 54.4446 66.3077 53.8335 65.9166L40.0001 57.5833Z" fill="#FFA629"/>
</svg>
