<svg width="80" height="80" viewBox="0 0 80 80" fill="none" xmlns="http://www.w3.org/2000/svg">
<path fill-rule="evenodd" clip-rule="evenodd" d="M43.3333 13.4133V13.3966C43.3333 13.2199 43.34 12.2199 42.61 11.2899C42.1597 10.7124 41.5334 10.2974 40.826 10.1079C40.1186 9.91845 39.3687 9.96479 38.69 10.2399C38.05 10.4933 37.64 10.8833 37.5233 10.9899C37.35 11.1566 37.21 11.3233 37.1167 11.4366C36.7375 11.92 36.3923 12.429 36.0833 12.9599C35.3933 14.1033 34.47 15.7599 33.5067 17.5433C31.6872 20.9404 29.9027 24.3562 28.1533 27.7899H28.1467L12.8167 29.0133C6.89998 29.4799 4.49998 36.8099 9.00665 40.6399L20.5667 50.4666L17.0333 65.1533C15.66 70.8866 21.94 75.4133 27.0067 72.3433L40.14 64.3833C42.1133 63.1866 43.3333 61.0633 43.3333 58.7433V13.4099V13.4133Z" fill="#FFA629"/>
</svg>
