<svg width="81" height="80" viewBox="0 0 81 80" fill="none" xmlns="http://www.w3.org/2000/svg">
<path d="M40.3449 13.3333C43.8811 13.3333 47.2725 14.738 49.773 17.2385C52.2735 19.739 53.6782 23.1304 53.6782 26.6666C53.6782 30.2028 52.2735 33.5942 49.773 36.0947C47.2725 38.5952 43.8811 39.9999 40.3449 39.9999C36.8087 39.9999 33.4173 38.5952 30.9168 36.0947C28.4163 33.5942 27.0116 30.2028 27.0116 26.6666C27.0116 23.1304 28.4163 19.739 30.9168 17.2385C33.4173 14.738 36.8087 13.3333 40.3449 13.3333ZM40.3449 46.6666C55.0782 46.6666 67.0116 52.6333 67.0116 59.9999V66.6666H13.6782V59.9999C13.6782 52.6333 25.6116 46.6666 40.3449 46.6666Z" fill="#1E1E1E"/>
</svg>
